# xmcd
#
# Track frame offsets:
#	150
#	21391
#	34991
#	49686
#	64186
#	83135
#	101499
#	115849
#	131823
#	152653
#	174101
#	197619
#	215710
#	235690
#	260358
#
# Disc length: 3658 seconds
#
# Revision: 0
# Processed by: cddbd v1.5.2PL0 Copyright (c) Steve Scherf et al.
# Submitted via: dBpowerAMP V4.0
#
DISCID=ca0e480f
DTITLE=John Denver - Rhymes And Reasons
DYEAR=2005
DGENRE=Country
TTITLE0=Rocky Mountain High
TTITLE1=Annie's Song
TTITLE2=Rhymes And Reasons
TTITLE3=Shanghai Breezes
TTITLE4=Fly Away
TTITLE5=Leaving On A Jet Plane
TTITLE6=Take Me Home Country Roads
TTITLE7=I'm Sorry
TTITLE8=Poems, Prayers And Promises
TTITLE9=Back Home Again
TTITLE10=Sunshine On My Shoulder
TTITLE11=Looking For Space
TTITLE12=My Sweet Lady
TTITLE13=Sweet Surrender
TTITLE14=Thank God I'm A Country Boy
EXTD=Ingo
EXTT0=
EXTT1=
EXTT2=
EXTT3=
EXTT4=
EXTT5=
EXTT6=
EXTT7=
EXTT8=
EXTT9=
EXTT10=
EXTT11=
EXTT12=
EXTT13=
EXTT14=
PLAYORDER=
